<svg width="24" height="24" viewBox="0 0 24 24" fill="none" xmlns="http://www.w3.org/2000/svg">
<g clip-path="url(#clip0_3002_796)">
<path d="M20.3555 12.7734L17.8145 19.8438L1.41992 24L9.4873 15.9326C9.6512 15.9766 9.8231 16 10.001 16C11.1059 15.9999 12.0009 15.1049 12.001 14C12.001 12.895 11.1059 12.0001 10.001 12C8.89598 12 8.00098 12.895 8.00098 14C8.00099 14.1799 8.02536 14.3546 8.07031 14.5205L0.00585938 22.5859L4.14941 6.19043L11.2305 3.64844L20.3555 12.7734ZM24.001 8.00488L21.208 10.7979L13.208 2.79785L16.001 0.00488281L24.001 8.00488Z" fill="white"/>
</g>
<defs>
<clipPath id="clip0_3002_796">
<rect width="24" height="24" fill="white"/>
</clipPath>
</defs>
</svg>
